<?xml version="1.0" encoding="UTF-8"?>
<!DOCTYPE svg PUBLIC "-//W3C//DTD SVG 1.1//EN" "http://www.w3.org/Graphics/SVG/1.1/DTD/svg11.dtd">
<!-- Creator: CorelDRAW 2020 (64 Bit) -->
<svg xmlns="http://www.w3.org/2000/svg" xml:space="preserve" width="5148px" height="1319px" version="1.1" style="shape-rendering:geometricPrecision; text-rendering:geometricPrecision; image-rendering:optimizeQuality; fill-rule:evenodd; clip-rule:evenodd"
viewBox="0 0 956.59 245.16"
 xmlns:xlink="http://www.w3.org/1999/xlink"
 xmlns:xodm="http://www.corel.com/coreldraw/odm/2003">
 <defs>
  <style type="text/css">
   <![CDATA[
    .fil5 {fill:none;fill-rule:nonzero}
    .fil3 {fill:#62B533}
    .fil2 {fill:#FC700D}
    .fil4 {fill:#FEFEFE;fill-rule:nonzero}
    .fil0 {fill:#3C910B;fill-rule:nonzero}
    .fil1 {fill:#FC700D;fill-rule:nonzero}
   ]]>
  </style>
   <clipPath id="id0" style="clip-rule:nonzero">
    <path d="M83.33 135.9c17.16,-6.4 28.59,-19.43 31.78,-35.31 4.72,-23.47 -8.93,-51.19 -38.43,-78.16 -29.51,26.97 -43.15,54.69 -38.43,78.16 3.19,15.88 14.61,28.91 31.78,35.31 2.33,0.86 4.59,1.71 6.65,2.42 2.06,-0.71 4.32,-1.56 6.65,-2.42z"/>
   </clipPath>
 </defs>
 <g id="Camada_x0020_1">
  <metadata id="CorelCorpID_0Corel-Layer"/>
  <g id="_1594645124352">
   <path class="fil0" d="M174.6 178.64l19.86 0 0 -68.02c0,-27.55 16.38,-43.19 41.95,-43.19 25.56,0 41.7,15.14 41.7,43.19l0 68.02 19.86 0 0 -68.02c0,-39.22 -25.32,-63.05 -61.56,-63.05 -36.24,0 -61.81,23.83 -61.81,63.05l0 68.02zm344.05 1.24l0 -19.86c-17.87,0 -41.2,-2.24 -41.2,-34.01l0 -57.34 31.52 0 0 -19.85 -31.52 0 0 -27.06 -19.86 0 0 27.06 -11.91 0 0 19.85 11.91 0 0 62.06c0,43.19 36.49,49.15 61.06,49.15zm27.58 -1.24l19.85 0 0 -80.68c0,-20.35 21.1,-32.02 43.19,-29.04l0 -20.1c-18.61,-1.74 -36.73,3.47 -43.93,16.13l0 -16.13 -19.11 0 0 129.82zm98.06 -147.2c6.7,0 12.41,-5.96 12.41,-11.91 0,-6.71 -5.71,-11.92 -12.41,-11.92 -6.2,0 -11.66,5.21 -11.66,11.92 0,5.95 5.46,11.91 11.66,11.91zm-9.18 147.2l18.61 0 0 -129.82 -18.61 0 0 129.82zm-261.44 1.24c36.24,0 61.56,-23.83 61.56,-63.05l0 -68.01 -19.85 0 0 68.01c0,27.8 -16.14,43.19 -41.71,43.19 -25.56,0 -41.95,-15.89 -41.95,-43.19l0 -68.01 -19.85 0 0 68.01c0,39.22 25.56,63.05 61.8,63.05z"/>
   <path class="fil1" d="M736.65 47.08c-37.48,0 -67.76,30.28 -67.76,67.51 0,37.24 30.28,67.77 67.76,67.77 20.6,0 38.97,-11.92 47.66,-28.55l0 25.82c0,32.76 -22.59,45.67 -47.91,45.67l0 19.86c36.99,0 67.77,-21.35 67.77,-66.03l0 -64.54c0,-37.23 -30.29,-67.51 -67.52,-67.51zm0 115.42c-26.56,0 -47.91,-21.59 -47.91,-47.91 0,-26.31 21.35,-47.65 47.91,-47.65 26.31,0 47.66,21.34 47.66,47.65 0,26.32 -21.35,47.91 -47.66,47.91zm152.43 19.11c37.23,0 67.51,-30.53 67.51,-67.76 0,-37.23 -30.28,-67.52 -67.51,-67.52 -37.49,0 -67.77,30.29 -67.77,67.52 0,37.23 30.28,67.76 67.77,67.76zm0 -19.85c-26.56,0 -47.91,-21.6 -47.91,-47.91 0,-26.31 21.35,-47.66 47.91,-47.66 26.31,0 47.66,21.35 47.66,47.66 0,26.31 -21.35,47.91 -47.66,47.91z"/>
  </g>
  <path class="fil2" d="M81.56 200.87c-3.11,3.1 -8.34,3.18 -11.62,0.08 -31.42,-29.68 -69.94,-80 -69.94,-125.25 0,-41.8 33.9,-75.7 75.7,-75.7 19.47,0 37.99,7.4 52.07,20.74l1.47 1.43c14.24,14.24 22.18,33.39 22.18,53.53 0,45.2 -38.47,95.53 -69.86,125.17zm-5.84 -17.8c16.03,-16.05 31.1,-34.86 42.22,-54.54 8.86,-15.68 16.61,-34.5 16.61,-52.83 0,-32.5 -26.33,-58.84 -58.84,-58.84 -32.51,0 -58.84,26.34 -58.84,58.84 0,18.25 7.78,37.17 16.63,52.83 11.11,19.68 26.18,38.49 42.22,54.54z"/>
  <path class="fil0" d="M83.33 135.9c17.16,-6.4 28.59,-19.43 31.78,-35.31 4.72,-23.47 -8.93,-51.19 -38.43,-78.16 -29.51,26.97 -43.15,54.69 -38.43,78.16 3.19,15.88 14.61,28.91 31.78,35.31 2.33,0.86 4.59,1.71 6.65,2.42 2.06,-0.71 4.32,-1.56 6.65,-2.42z"/>
  <g style="clip-path:url(#id0)">
   <g id="_1594645123392">
    <rect class="fil3" x="2.54" y="11.09" width="74.13" height="175.57"/>
    <path class="fil4" d="M85.26 68.57l0 22.47c0,0.67 -0.55,1.34 -1.33,1.34l-3.01 0c-0.67,0 -1.34,-0.56 -1.34,-1.34l0 -22.47 -5.69 0 0 22.47c0,0.67 -0.56,1.34 -1.34,1.34l-3.01 0c-0.67,0 -1.34,-0.56 -1.34,-1.34l0 -22.47 -5.68 0 0 27.6c0,4.91 3.68,8.92 8.47,9.48l-0.89 58.1c-0.11,3.68 2.9,6.69 6.58,6.69 3.68,0 6.58,-3.01 6.58,-6.69l-0.89 -58.1c4.79,-0.45 8.47,-4.57 8.47,-9.48l0 -27.6 -5.58 0z"/>
   </g>
  </g>
  <path class="fil5" d="M83.33 135.9c17.16,-6.4 28.59,-19.43 31.78,-35.31 4.72,-23.47 -8.93,-51.19 -38.43,-78.16 -29.51,26.97 -43.15,54.69 -38.43,78.16 3.19,15.88 14.61,28.91 31.78,35.31 2.33,0.86 4.59,1.71 6.65,2.42 2.06,-0.71 4.32,-1.56 6.65,-2.42z"/>
 </g>
</svg>
